<?xml version="1.0" standalone="no"?>
<!DOCTYPE svg PUBLIC "-//W3C//DTD SVG 20010904//EN"
 "http://www.w3.org/TR/2001/REC-SVG-20010904/DTD/svg10.dtd">
<svg version="1.0" xmlns="http://www.w3.org/2000/svg"
 width="500.000000pt" height="500.000000pt" viewBox="0 0 500.000000 500.000000"
 preserveAspectRatio="xMidYMid meet">
<metadata>
Created by potrace 1.14, written by Peter Selinger 2001-2017
</metadata>
<g transform="translate(0.000000,500.000000) scale(0.100000,-0.100000)"
fill="#000000" stroke="none">
<path d="M1197 4903 c-3 -5 -5 -99 -6 -210 l-1 -203 255 0 c140 0 256 3 256 8
1 4 2 98 3 210 l1 202 -252 0 c-138 0 -254 -3 -256 -7z"/>
<path d="M2787 4863 c-3 -5 -5 -110 -5 -236 l1 -227 294 2 295 3 -1 210 c0
116 0 220 -1 233 l0 22 -289 0 c-160 0 -292 -3 -294 -7z"/>
<path d="M1692 4155 l0 -255 327 0 327 0 0 255 0 255 -327 0 -327 0 0 -255z"/>
<path d="M2479 4328 c-1 -2 -3 -67 -3 -145 l-2 -143 657 0 c377 0 678 -4 707
-10 71 -13 129 -43 185 -95 26 -25 45 -45 42 -45 -4 0 0 -7 9 -15 8 -9 18 -31
22 -50 3 -19 9 -35 13 -35 3 0 6 -562 6 -1250 0 -701 -4 -1250 -9 -1250 -4 0
-6 -9 -3 -20 3 -11 2 -20 -3 -20 -4 0 -11 -11 -14 -25 -4 -14 -11 -25 -16 -25
-6 0 -10 -6 -10 -12 0 -15 -63 -77 -100 -99 -14 -9 -50 -23 -80 -33 -51 -15
-150 -16 -1250 -14 l-1195 3 -55 26 c-55 26 -150 112 -150 136 0 7 -4 13 -8
13 -5 0 -9 7 -10 15 -1 8 -3 22 -4 30 -1 8 -5 15 -9 15 -4 0 -7 339 -8 753 0
413 0 764 0 780 l-1 27 -190 0 c-145 0 -190 -3 -191 -12 0 -7 0 -501 0 -1098
1 -723 4 -1100 11 -1130 6 -25 11 -51 12 -57 1 -7 6 -13 11 -13 6 0 8 -3 5 -6
-4 -3 1 -22 11 -42 56 -123 163 -230 293 -295 201 -100 185 -99 1568 -94 1289
4 1221 0 1380 69 72 31 165 87 185 111 6 7 23 22 39 35 16 12 26 22 22 22 -4
0 5 11 20 25 15 14 24 25 20 25 -3 0 3 9 14 20 11 11 20 27 20 35 0 8 4 15 9
15 5 0 15 17 21 38 7 20 16 41 20 46 5 5 6 15 3 22 -3 8 0 14 6 14 6 0 9 15 7
35 -1 19 1 35 6 35 11 0 10 3127 -1 3134 -4 3 -7 21 -4 41 2 19 -1 35 -6 35
-5 0 -8 8 -7 17 2 9 -3 28 -11 42 -7 15 -13 31 -13 37 0 6 -7 17 -15 24 -8 7
-13 16 -10 20 3 4 -6 19 -20 34 -13 14 -21 26 -18 26 3 0 -23 29 -58 63 -93
92 -175 141 -317 189 -67 23 -68 23 -799 26 -403 1 -734 1 -734 0z m303 -3608
c45 -14 78 -32 110 -62 57 -53 72 -82 69 -131 -3 -55 -18 -88 -57 -124 -130
-118 -342 -122 -493 -9 -19 14 -32 26 -28 26 4 0 2 7 -5 15 -7 9 -17 21 -23
28 -13 16 -11 95 3 130 12 29 64 87 78 87 4 0 15 6 23 14 51 45 217 59 323 26z
m-795 -190 l-1 -50 -288 0 -288 0 0 50 0 50 289 0 289 0 -1 -50z m1912 0 l1
-50 -290 0 -290 0 0 50 0 50 289 0 288 0 2 -50z"/>
<path d="M936 4123 c1 -98 2 -181 3 -185 0 -5 107 -8 236 -8 l235 0 0 185 0
185 -238 0 -237 0 1 -177z"/>
<path d="M2019 3778 c-1 -2 -2 -192 -3 -423 l-1 -420 542 0 543 0 1 30 c0 38
0 797 0 808 -1 6 -1079 11 -1082 5z"/>
<path d="M500 3356 l0 -354 448 0 449 0 0 354 0 354 -449 0 -448 0 0 -354z"/>
<path d="M1438 2843 c-2 -5 -4 -82 -3 -173 l1 -165 230 -3 231 -2 0 175 0 175
-228 0 c-125 0 -229 -3 -231 -7z"/>
<path d="M2310 2585 c0 -8 -4 -15 -9 -15 -9 0 -8 -50 2 -66 3 -6 2 -16 -3 -24
-4 -7 -4 -24 1 -37 5 -13 5 -22 1 -19 -11 6 -8 -57 3 -74 5 -8 4 -11 -2 -7
-12 7 -10 -54 2 -73 5 -8 4 -11 -2 -7 -12 7 -10 -54 2 -73 5 -8 4 -11 -2 -7
-11 7 -9 -95 3 -114 4 -7 3 -10 -3 -6 -5 3 -9 -11 -9 -36 l1 -42 -95 -1 c-142
-1 -140 0 -140 -94 0 -116 -7 -110 126 -110 l114 0 -4 -45 c-2 -25 1 -45 6
-45 5 0 7 -4 3 -9 -3 -5 -52 -9 -109 -8 -73 0 -109 -3 -120 -12 -22 -18 -23
-143 -1 -161 10 -8 50 -12 120 -12 l105 1 -2 -42 c-2 -23 1 -48 6 -56 6 -9 5
-12 -1 -8 -11 7 -9 -76 2 -94 4 -5 51 -9 105 -9 98 0 100 0 106 25 3 14 4 34
1 45 -3 11 -2 20 2 20 6 0 7 38 1 65 -1 6 -2 19 -1 31 1 21 4 21 236 22 182 0
238 3 248 14 16 16 15 144 -1 160 -7 7 -82 11 -234 10 -123 -1 -230 1 -238 3
-14 4 -22 55 -9 55 3 0 4 11 1 25 l-4 25 188 1 c104 1 199 1 212 2 12 0 22 3
22 7 0 5 8 7 17 6 19 -3 116 44 148 72 35 30 95 109 88 115 -3 4 -1 7 6 7 7 0
9 5 6 10 -3 6 -2 10 3 10 4 0 16 26 26 59 17 59 21 189 6 221 -4 8 -13 33 -20
55 -13 42 -52 98 -104 151 -35 35 -133 85 -170 88 -13 0 -22 4 -20 8 3 4 -135
7 -306 8 -271 0 -310 -1 -310 -15z m583 -204 c29 -11 36 -16 77 -53 27 -24 65
-108 49 -108 -6 0 -5 -8 1 -20 7 -14 7 -26 1 -39 -6 -10 -8 -21 -5 -24 3 -2
-1 -20 -9 -39 -16 -37 -87 -100 -121 -105 -12 -2 -97 -5 -191 -6 l-170 -2 -1
36 c0 19 -3 40 -6 45 -4 5 -3 28 2 52 4 23 4 45 -1 48 -4 2 -4 16 1 29 6 16 6
25 -1 25 -6 0 -6 7 -2 18 9 20 10 52 2 67 -4 6 -4 27 -2 47 5 33 8 37 37 40
71 7 313 -1 339 -11z"/>
</g>
</svg>
